<?xml version="1.0" standalone="no"?>
<!DOCTYPE svg PUBLIC "-//W3C//DTD SVG 20010904//EN"
 "http://www.w3.org/TR/2001/REC-SVG-20010904/DTD/svg10.dtd">
<svg version="1.0" xmlns="http://www.w3.org/2000/svg"
 width="289.000000pt" height="211.000000pt" viewBox="0 0 289.000000 211.000000"
 preserveAspectRatio="xMidYMid meet">

<g transform="translate(0.000000,211.000000) scale(0.100000,-0.100000)"
fill="#000000" stroke="none">
<path d="M1507 1933 c-10 -37 -37 -110 -59 -161 -33 -75 -38 -95 -28 -107 24
-28 47 -17 66 30 l17 45 57 0 58 0 7 -52 c11 -81 15 -86 53 -76 31 8 32 10 26
46 -16 94 -74 275 -102 320 -5 7 -24 15 -43 18 l-34 6 -18 -69z m66 -55 c8
-18 17 -45 21 -60 6 -27 5 -28 -33 -28 l-39 0 16 60 c9 33 17 60 19 60 1 0 9
-15 16 -32z"/>
<path d="M1180 1935 c0 -55 20 -307 25 -313 1 -2 44 0 94 4 92 7 92 7 89 33
-3 25 -5 26 -65 23 l-63 -4 -2 79 c-1 43 -1 113 1 156 l3 77 -41 0 -41 0 0
-55z"/>
<path d="M480 1535 c-8 -2 -32 -6 -52 -10 -32 -5 -38 -10 -38 -30 0 -23 4 -25
44 -25 42 0 44 -1 50 -37 3 -21 6 -89 6 -150 l0 -113 29 0 c17 0 33 5 36 10 4
6 6 76 6 155 l-1 145 40 0 c38 0 40 2 40 30 l0 30 -72 -1 c-40 -1 -80 -3 -88
-4z"/>
<path d="M1951 1529 c-30 -5 -56 -11 -57 -12 -2 -2 -1 -13 3 -25 4 -18 12 -22
48 -22 l42 0 7 -46 c3 -26 6 -91 6 -145 0 -58 4 -100 11 -104 5 -4 21 -4 35
-1 l24 6 0 150 0 150 40 0 c38 0 40 2 40 30 l0 30 -72 -1 c-40 -1 -97 -5 -127
-10z"/>
<path d="M1333 1523 c-9 -3 -13 -36 -13 -111 l0 -107 -41 80 c-49 96 -65 115
-95 115 -50 0 -54 -7 -53 -94 1 -44 4 -121 8 -171 6 -88 7 -90 31 -90 l25 0 3
124 3 125 26 -38 c14 -21 41 -72 60 -113 31 -68 36 -74 61 -71 35 4 39 25 41
211 1 146 1 147 -21 146 -13 0 -29 -3 -35 -6z"/>
<path d="M960 1514 c-8 -1 -36 -6 -62 -9 l-48 -6 0 -62 c0 -84 20 -280 30
-291 5 -4 49 -5 99 -1 91 7 91 7 91 35 l0 27 -70 -5 -70 -5 0 57 0 56 55 0
c55 0 55 0 55 31 l0 31 -55 -7 -55 -6 0 50 0 50 63 3 c59 3 62 4 65 31 3 26 2
27 -40 26 -24 -1 -50 -3 -58 -5z"/>
<path d="M1520 1500 c-20 -3 -41 -10 -48 -14 -13 -8 -17 -169 -5 -276 l6 -62
45 5 c127 14 231 182 178 285 -26 51 -99 76 -176 62z m82 -54 c42 -31 45 -109
6 -174 -19 -31 -54 -62 -70 -62 -10 0 -11 234 -1 243 11 11 47 7 65 -7z"/>
<path d="M2295 1488 c-36 -116 -63 -195 -87 -247 -22 -49 -26 -67 -17 -77 21
-26 44 -15 67 31 l22 45 54 0 54 0 12 -65 c11 -56 15 -65 34 -65 43 0 48 12
36 79 -22 121 -83 283 -114 303 -18 12 -56 9 -61 -4z m74 -185 c1 -9 -13 -13
-38 -13 l-40 0 15 48 c9 26 18 54 21 62 5 14 40 -68 42 -97z"/>
<path d="M704 1482 c-10 -7 -1 -329 10 -340 3 -2 17 -2 31 2 l25 6 0 170 0
170 -27 0 c-16 0 -33 -4 -39 -8z"/>
<path d="M1775 1482 c-10 -7 -1 -329 9 -340 3 -2 17 -2 31 2 l25 6 0 170 0
170 -27 0 c-16 0 -33 -4 -38 -8z"/>
<path d="M2157 1013 c-17 -4 -18 -13 -11 -109 4 -57 4 -104 1 -104 -4 0 -14
15 -23 33 -9 17 -32 60 -53 94 -31 55 -40 63 -66 63 -57 0 -58 -5 -51 -151 4
-74 9 -151 12 -172 5 -34 9 -38 32 -35 l27 3 -4 118 c-2 77 1 117 8 117 5 0
34 -47 62 -105 42 -84 57 -105 74 -105 41 0 45 16 45 192 0 182 2 175 -53 161z"/>
<path d="M1013 998 l-63 -10 0 -61 c0 -112 22 -288 37 -294 7 -3 52 -2 98 2
84 7 85 7 85 34 0 27 0 28 -67 27 l-68 -1 0 50 0 50 53 3 c51 3 53 4 50 30 -3
26 -6 27 -58 27 l-55 0 3 35 c4 58 7 60 72 60 l60 0 0 30 c0 29 -2 30 -42 29
-24 -1 -71 -6 -105 -11z"/>
<path d="M1715 991 c-62 -38 -85 -88 -85 -183 0 -109 40 -163 121 -162 56 1
80 18 112 79 25 50 34 158 17 209 -22 68 -103 96 -165 57z m79 -46 c35 -35 32
-194 -5 -234 -28 -29 -46 -26 -69 12 -34 55 -23 192 18 225 21 16 37 15 56 -3z"/>
<path d="M658 979 c-16 -9 -18 -26 -17 -132 0 -67 3 -140 7 -162 8 -39 8 -40
50 -39 87 2 182 102 190 199 5 62 -15 108 -58 130 -33 17 -145 20 -172 4z
m122 -39 c30 -16 44 -77 30 -130 -11 -42 -66 -110 -89 -110 -12 0 -16 231 -4
243 10 10 42 8 63 -3z"/>
<path d="M1358 983 c-27 -7 -31 -39 -21 -195 l8 -143 32 -3 c61 -6 171 75 193
143 24 76 16 131 -24 171 -32 32 -37 34 -102 33 -38 -1 -77 -3 -86 -6z m126
-54 c21 -16 26 -29 26 -64 0 -24 -5 -56 -11 -72 -12 -33 -68 -93 -86 -93 -15
0 -17 70 -6 183 5 61 8 67 28 67 12 0 34 -9 49 -21z"/>
<path d="M1576 494 l-29 -16 7 -76 c3 -41 6 -117 6 -169 l0 -93 29 0 c29 0 30
2 36 58 12 107 24 108 77 3 20 -40 39 -75 42 -78 9 -10 56 19 56 34 0 7 -18
43 -40 79 -22 36 -40 69 -40 73 0 3 11 16 24 28 47 45 39 131 -15 158 -36 19
-116 18 -153 -1z m108 -40 c25 -24 20 -81 -9 -109 -13 -14 -28 -25 -34 -25 -9
0 -20 137 -12 146 10 9 41 3 55 -12z"/>
<path d="M703 489 c-42 -12 -47 -40 -39 -193 10 -178 12 -186 48 -186 l30 0
-4 66 -3 65 60 32 c89 48 126 118 94 179 -22 41 -111 59 -186 37z m102 -54
c29 -28 31 -45 11 -84 -13 -24 -52 -51 -76 -51 -8 0 -4 117 6 148 6 19 33 14
59 -13z"/>
<path d="M1085 495 c-5 -2 -36 -6 -67 -10 l-58 -6 0 -45 c0 -48 30 -306 36
-313 2 -2 45 0 96 5 90 9 93 10 93 34 0 24 -1 25 -66 22 l-66 -4 -6 47 c-4 26
-4 51 -1 56 3 5 27 9 55 9 48 0 49 0 49 31 l0 31 -55 -7 -55 -6 0 44 c0 52 8
57 80 57 43 0 48 3 52 25 3 13 3 27 0 30 -6 5 -71 6 -87 0z"/>
<path d="M1920 481 c-105 -56 -116 -282 -16 -336 71 -39 152 9 181 108 51 171
-39 296 -165 228z m87 -57 c34 -53 16 -225 -26 -239 -49 -15 -75 39 -69 144 6
107 55 156 95 95z"/>
<path d="M1290 477 l-45 -12 -3 -55 c-2 -30 -1 -106 3 -167 l7 -113 34 0 c68
0 157 67 188 142 9 21 16 60 16 87 0 63 -33 107 -88 117 -20 3 -44 7 -52 9 -8
2 -35 -2 -60 -8z m97 -52 c49 -35 41 -136 -16 -196 -21 -21 -43 -39 -49 -39
-13 0 -17 146 -6 213 5 29 11 37 28 37 12 0 31 -7 43 -15z"/>
</g>
</svg>
